HIERARCHY
ROOT Root
{
  OFFSET 0.0 0.0 0.0
  CHANNELS 6 Xposition Yposition Zposition Zrotation Yrotation Xrotation
  JOINT Hips
  {
    OFFSET 0.0 100.0 0.0
    CHANNELS 6 Xposition Yposition Zposition Zrotation Yrotation Xrotation
    JOINT Spine1
    {
      OFFSET -0.013727 5.003763 -0.053727
      CHANNELS 3 Zrotation Yrotation Xrotation
      JOINT Spine2
      {
        OFFSET -0.0 7.125301 -0.029825
        CHANNELS 3 Zrotation Yrotation Xrotation
        JOINT Chest
        {
          OFFSET -1e-06 7.550063 -0.815971
          CHANNELS 3 Zrotation Yrotation Xrotation
          JOINT Neck1
          {
            OFFSET -0.181677 26.311295 -0.553348
            CHANNELS 3 Zrotation Yrotation Xrotation
            JOINT Neck2
            {
              OFFSET -3e-06 7.709397 2.302585
              CHANNELS 3 Zrotation Yrotation Xrotation
              JOINT Head
              {
                OFFSET -5e-06 6.128916 1.953709
                CHANNELS 3 Zrotation Yrotation Xrotation
                JOINT HeadEnd
                {
                  OFFSET 0.003598 16.065403 -1.835379
                  CHANNELS 3 Zrotation Yrotation Xrotation
                }
                JOINT Jaw
                {
                  OFFSET 0.002637 0.475592 3.094941
                  CHANNELS 3 Zrotation Yrotation Xrotation
                }
                JOINT LeftEye
                {
                  OFFSET 3.206381 5.380205 7.586883
                  CHANNELS 3 Zrotation Yrotation Xrotation
                }
                JOINT RightEye
                {
                  OFFSET -3.22244 5.361869 7.558234
                  CHANNELS 3 Zrotation Yrotation Xrotation
                }
              }
            }
          }
          JOINT LeftShoulder
          {
            OFFSET 1.621652 23.237164 5.113413
            CHANNELS 3 Zrotation Yrotation Xrotation
            JOINT LeftArm
            {
              OFFSET 14.919846 2e-06 -5.502326
              CHANNELS 3 Zrotation Yrotation Xrotation
              JOINT LeftForeArm
              {
                OFFSET 28.739307 0.0 -0.002588
                CHANNELS 3 Zrotation Yrotation Xrotation
                JOINT LeftHand
                {
                  OFFSET 27.093981 -1e-06 0.002609
                  CHANNELS 3 Zrotation Yrotation Xrotation
                  JOINT LeftHandThumb1
                  {
                    OFFSET 2.276482 -1.392045 3.191413
                    CHANNELS 3 Zrotation Yrotation Xrotation
                    JOINT LeftHandThumb2
                    {
                      OFFSET 4.012836 -1.828127 1.641654
                      CHANNELS 3 Zrotation Yrotation Xrotation
                      JOINT LeftHandThumb3
                      {
                        OFFSET 2.798515 0.0 -3e-06
                        CHANNELS 3 Zrotation Yrotation Xrotation
                        JOINT LeftHandThumbEnd
                        {
                          OFFSET 3.180793 -4e-06 4e-06
                          CHANNELS 3 Zrotation Yrotation Xrotation
                        }
                      }
                    }
                  }
                  JOINT LeftHandIndex1
                  {
                    OFFSET 3.247555 -0.531998 2.296169
                    CHANNELS 3 Zrotation Yrotation Xrotation
                    JOINT LeftHandIndex2
                    {
                      OFFSET 6.364578 0.01206 0.1786
                      CHANNELS 3 Zrotation Yrotation Xrotation
                      JOINT LeftHandIndex3
                      {
                        OFFSET 3.662364 0.0 0.0
                        CHANNELS 3 Zrotation Yrotation Xrotation
                        JOINT LeftHandIndex4
                        {
                          OFFSET 2.329242 4e-06 4e-06
                          CHANNELS 3 Zrotation Yrotation Xrotation
                          JOINT LeftHandIndexEnd
                          {
                            OFFSET 2.759615 -0.180537 -0.113024
                            CHANNELS 3 Zrotation Yrotation Xrotation
                          }
                        }
                      }
                    }
                  }
                  JOINT LeftHandMiddle1
                  {
                    OFFSET 3.163495 0.240981 1.000332
                    CHANNELS 3 Zrotation Yrotation Xrotation
                    JOINT LeftHandMiddle2
                    {
                      OFFSET 6.19078 -0.259278 -1.002548
                      CHANNELS 3 Zrotation Yrotation Xrotation
                      JOINT LeftHandMiddle3
                      {
                        OFFSET 4.35652 -4e-06 -1e-06
                        CHANNELS 3 Zrotation Yrotation Xrotation
                        JOINT LeftHandMiddle4
                        {
                          OFFSET 2.996877 -8e-06 0.0
                          CHANNELS 3 Zrotation Yrotation Xrotation
                          JOINT LeftHandMiddleEnd
                          {
                            OFFSET 2.304287 -0.294569 -0.031741
                            CHANNELS 3 Zrotation Yrotation Xrotation
                          }
                        }
                      }
                    }
                  }
                  JOINT LeftHandRing1
                  {
                    OFFSET 2.882643 -0.053652 -0.322543
                    CHANNELS 3 Zrotation Yrotation Xrotation
                    JOINT LeftHandRing2
                    {
                      OFFSET 5.854541 -0.486202 -1.373841
                      CHANNELS 3 Zrotation Yrotation Xrotation
                      JOINT LeftHandRing3
                      {
                        OFFSET 4.350578 0.0 3e-06
                        CHANNELS 3 Zrotation Yrotation Xrotation
                        JOINT LeftHandRing4
                        {
                          OFFSET 2.651321 7e-06 2e-06
                          CHANNELS 3 Zrotation Yrotation Xrotation
                          JOINT LeftHandRingEnd
                          {
                            OFFSET 1.936105 0.077687 -7.1e-05
                            CHANNELS 3 Zrotation Yrotation Xrotation
                          }
                        }
                      }
                    }
                  }
                  JOINT LeftHandPinky1
                  {
                    OFFSET 2.8655 -0.310005 -1.600378
                    CHANNELS 3 Zrotation Yrotation Xrotation
                    JOINT LeftHandPinky2
                    {
                      OFFSET 5.087849 -1.331141 -1.77123
                      CHANNELS 3 Zrotation Yrotation Xrotation
                      JOINT LeftHandPinky3
                      {
                        OFFSET 3.070974 4e-06 0.0
                        CHANNELS 3 Zrotation Yrotation Xrotation
                        JOINT LeftHandPinky4
                        {
                          OFFSET 1.549672 0.0 1e-06
                          CHANNELS 3 Zrotation Yrotation Xrotation
                          JOINT LeftHandPinkyEnd
                          {
                            OFFSET 1.944893 -0.157802 0.057219
                            CHANNELS 3 Zrotation Yrotation Xrotation
                          }
                        }
                      }
                    }
                  }
                }
              }
            }
          }
          JOINT RightShoulder
          {
            OFFSET -1.380118 23.180309 5.214158
            CHANNELS 3 Zrotation Yrotation Xrotation
            JOINT RightArm
            {
              OFFSET -15.037196 1.2e-05 -5.545604
              CHANNELS 3 Zrotation Yrotation Xrotation
              JOINT RightForeArm
              {
                OFFSET -28.736639 2e-06 -0.002597
                CHANNELS 3 Zrotation Yrotation Xrotation
                JOINT RightHand
                {
                  OFFSET -27.133619 -0.0 0.002613
                  CHANNELS 3 Zrotation Yrotation Xrotation
                  JOINT RightHandThumb1
                  {
                    OFFSET -2.274032 -1.383988 3.163127
                    CHANNELS 3 Zrotation Yrotation Xrotation
                    JOINT RightHandThumb2
                    {
                      OFFSET -4.011429 -1.827466 1.640914
                      CHANNELS 3 Zrotation Yrotation Xrotation
                      JOINT RightHandThumb3
                      {
                        OFFSET -2.794935 -4e-06 -3e-06
                        CHANNELS 3 Zrotation Yrotation Xrotation
                        JOINT RightHandThumbEnd
                        {
                          OFFSET -3.183852 4e-06 1e-06
                          CHANNELS 3 Zrotation Yrotation Xrotation
                        }
                      }
                    }
                  }
                  JOINT RightHandIndex1
                  {
                    OFFSET -3.253266 -0.520057 2.282866
                    CHANNELS 3 Zrotation Yrotation Xrotation
                    JOINT RightHandIndex2
                    {
                      OFFSET -6.341917 0.012471 0.178266
                      CHANNELS 3 Zrotation Yrotation Xrotation
                      JOINT RightHandIndex3
                      {
                        OFFSET -3.654871 -8e-06 -0.0
                        CHANNELS 3 Zrotation Yrotation Xrotation
                        JOINT RightHandIndex4
                        {
                          OFFSET -2.327586 0.0 1e-06
                          CHANNELS 3 Zrotation Yrotation Xrotation
                          JOINT RightHandIndexEnd
                          {
                            OFFSET -2.76179 -0.180656 -0.113078
                            CHANNELS 3 Zrotation Yrotation Xrotation
                          }
                        }
                      }
                    }
                  }
                  JOINT RightHandMiddle1
                  {
                    OFFSET -3.168106 0.246593 1.00103
                    CHANNELS 3 Zrotation Yrotation Xrotation
                    JOINT RightHandMiddle2
                    {
                      OFFSET -6.180828 -0.258836 -1.000895
                      CHANNELS 3 Zrotation Yrotation Xrotation
                      JOINT RightHandMiddle3
                      {
                        OFFSET -4.348901 0.0 -0.0
                        CHANNELS 3 Zrotation Yrotation Xrotation
                        JOINT RightHandMiddle4
                        {
                          OFFSET -3.00024 -4e-06 -2e-06
                          CHANNELS 3 Zrotation Yrotation Xrotation
                          JOINT RightHandMiddleEnd
                          {
                            OFFSET -2.30252 -0.29437 -0.031706
                            CHANNELS 3 Zrotation Yrotation Xrotation
                          }
                        }
                      }
                    }
                  }
                  JOINT RightHandRing1
                  {
                    OFFSET -2.88569 -0.067952 -0.308858
                    CHANNELS 3 Zrotation Yrotation Xrotation
                    JOINT RightHandRing2
                    {
                      OFFSET -5.854198 -0.48613 -1.373731
                      CHANNELS 3 Zrotation Yrotation Xrotation
                      JOINT RightHandRing3
                      {
                        OFFSET -4.33881 -4e-06 -0.0
                        CHANNELS 3 Zrotation Yrotation Xrotation
                        JOINT RightHandRing4
                        {
                          OFFSET -2.654903 -4e-06 4e-06
                          CHANNELS 3 Zrotation Yrotation Xrotation
                          JOINT RightHandRingEnd
                          {
                            OFFSET -1.933568 0.077527 -5.2e-05
                            CHANNELS 3 Zrotation Yrotation Xrotation
                          }
                        }
                      }
                    }
                  }
                  JOINT RightHandPinky1
                  {
                    OFFSET -2.866425 -0.342796 -1.584145
                    CHANNELS 3 Zrotation Yrotation Xrotation
                    JOINT RightHandPinky2
                    {
                      OFFSET -5.091371 -1.332055 -1.772385
                      CHANNELS 3 Zrotation Yrotation Xrotation
                      JOINT RightHandPinky3
                      {
                        OFFSET -3.062664 -4e-06 1e-06
                        CHANNELS 3 Zrotation Yrotation Xrotation
                        JOINT RightHandPinky4
                        {
                          OFFSET -1.546529 4e-06 -2e-06
                          CHANNELS 3 Zrotation Yrotation Xrotation
                          JOINT RightHandPinkyEnd
                          {
                            OFFSET -1.945119 -0.157718 0.057211
                            CHANNELS 3 Zrotation Yrotation Xrotation
                          }
                        }
                      }
                    }
                  }
                }
              }
            }
          }
        }
      }
    }
    JOINT LeftLeg
    {
      OFFSET 10.043214 -8.434526 2.595655
      CHANNELS 3 Zrotation Yrotation Xrotation
      JOINT LeftShin
      {
        OFFSET -1e-06 -43.221752 -0.802913
        CHANNELS 3 Zrotation Yrotation Xrotation
        JOINT LeftFoot
        {
          OFFSET 1e-06 -42.155094 -3.481523
          CHANNELS 3 Zrotation Yrotation Xrotation
          JOINT LeftToeBase
          {
            OFFSET 0.0 -5.059472 13.231529
            CHANNELS 3 Zrotation Yrotation Xrotation
            JOINT LeftToeEnd
            {
              OFFSET -0.009607 -1.647619 6.513017
              CHANNELS 3 Zrotation Yrotation Xrotation
            }
          }
        }
      }
    }
    JOINT RightLeg
    {
      OFFSET -10.047278 -8.29526 2.620317
      CHANNELS 3 Zrotation Yrotation Xrotation
      JOINT RightShin
      {
        OFFSET 1e-06 -43.362206 -0.805556
        CHANNELS 3 Zrotation Yrotation Xrotation
        JOINT RightFoot
        {
          OFFSET 2e-06 -42.117393 -3.478398
          CHANNELS 3 Zrotation Yrotation Xrotation
          JOINT RightToeBase
          {
            OFFSET -0.0 -5.079609 13.284196
            CHANNELS 3 Zrotation Yrotation Xrotation
            JOINT RightToeEnd
            {
              OFFSET 0.009532 -1.634378 6.460591
              CHANNELS 3 Zrotation Yrotation Xrotation
            }
          }
        }
      }
    }
  }
}
MOTION
Frames: 4
Frame Time: 0.03333333333333333
0.0 0.0 0.0 0.0 -0.0 0.0 2.098216 99.858109 3.405509 -0.450805 -0.292826 -0.325636 -1.136583 0.290578 -4.079073 -0.463153 0.807029 -6.728015 0.698951 -0.785922 14.955777 0.957138 2.07069 1.876988 -0.434547 0.692652 -3.558489 1.328693 -0.632126 -8.572254 7.7e-05 -2.3e-05 6e-06 0.025785 0.07615 0.062598 0.719041 -3.670012 -10.566566 -0.668699 3.829864 -10.602481 -21.000053 -6.516233 18.984329 -52.184631 -14.010364 27.924433 -0.012617 -26.900558 0.17045 8.182537 8.189685 -15.867016 -5.882112 9.861292 0.70259 -10.936877 -0.360572 7.156206 -1e-06 8.77483 -1e-06 -16.061062 17.93354 6.070307 -1.844034 2.498505 -2.507277 -10.163605 4.678949 4.621109 -20.976036 -0.0 -1e-06 -21.226301 2.451702 -3.594002 1e-06 -5e-06 0.0 -1.362682 2.240798 -0.746322 -21.334925 0.584913 3.008321 -13.82122 -1e-06 1e-06 -23.887184 -0.249076 -0.839485 -60.013184 2.406359 -1.309148 -0.294025 1.679689 0.833254 -14.218215 0.093218 1.300582 -34.212063 -0.287558 0.967165 -20.033226 0.964537 1.212838 1e-06 1e-06 0.0 -3.44039 0.788234 0.501656 -15.928192 -3.167308 2.999705 -6.338829 -0.0 0.0 -18.123457 3.648187 -4.905676 -4e-06 -1e-06 -2e-06 13.383838 15.849151 18.05147 62.513779 8.171311 20.567783 0.321772 33.329369 0.050632 -1.738209 -6.909986 -15.850406 2.243543 -5.25504 -3.180158 14.282896 -0.826597 6.952502 -1e-06 -12.69061 -1e-06 16.00057 -17.510014 2.696193 1.665667 -1.955922 -2.878301 4.727801 -4.17059 4.993927 11.02053 2e-06 -1e-06 12.109058 -3.735718 -2.866785 0.0 -0.0 -1e-06 1.291986 -1.92855 -1.49809 14.800132 0.567467 3.865608 14.242578 -1.341738 -6.66066 19.631973 0.143924 -0.648246 49.348 -0.60407 -6.361443 0.353029 -1.511151 -0.03194 20.222801 3.684309 2.316632 18.787283 2e-06 -0.0 10.751633 -0.479871 1.397906 -0.0 1e-06 -0.0 3.273808 0.305947 -0.58011 21.48682 11.830377 2.266134 8.16293 0.0 -0.0 18.399092 -3.798989 -4.940578 3e-06 -0.0 -2e-06 4.866158 10.769423 4.214639 -0.03372 0.022664 3.620731 -5.297231 3.562065 -6.986753 1.606388 -1.796896 -0.372 -0.0 -0.0 2e-06 -4.810851 -9.38132 0.907468 0.00278 0.080619 8.474418 5.971141 2.835612 -6.622358 -1.425932 1.054585 -0.578459 -0.0 -0.0 -1e-06 
0.0 0.0 0.0 0.0 -0.0 0.0 2.01129 99.806892 3.635581 -0.389242 -0.43994 -0.211707 -1.176677 0.274316 -4.013927 -0.455471 0.845928 -6.698192 0.520777 -0.845997 14.767013 1.024895 2.161519 1.808734 -0.431459 0.646874 -3.538439 1.375154 -0.605749 -8.903166 7.7e-05 -2.3e-05 6e-06 0.023022 0.084791 0.061625 0.705053 -3.667579 -10.553409 -0.65993 3.843486 -10.588105 -21.068184 -6.276039 18.959799 -52.177177 -13.599162 26.847042 -0.14805 -28.142723 0.167324 9.402268 7.963434 -14.846099 -5.882113 9.861296 0.702592 -10.936878 -0.360572 7.156209 -2e-06 8.774833 -2e-06 -16.054319 17.95879 6.076114 -1.844035 2.498507 -2.507278 -10.163609 4.678952 4.621111 -20.976038 2e-06 0.0 -21.226303 2.451703 -3.594005 0.0 -6e-06 -1e-06 -1.362683 2.2408 -0.746323 -21.334929 0.584916 3.008326 -13.821222 1e-06 1e-06 -23.887184 -0.249073 -0.839486 -60.028191 2.433629 -1.228976 -0.294025 1.679689 0.833258 -14.218219 0.093218 1.300583 -34.212074 -0.287556 0.967166 -20.03323 0.964541 1.21284 0.0 1e-06 1e-06 -3.440391 0.788234 0.501656 -15.928198 -3.167309 2.999708 -6.338831 1e-06 0.0 -18.123463 3.64819 -4.905678 -4e-06 1e-06 -1e-06 13.443814 15.653487 18.205109 63.332718 8.033331 18.729681 -0.026765 34.527905 -0.015887 -2.462553 -7.267566 -16.303537 2.243545 -5.255043 -3.180159 14.282902 -0.826597 6.952507 1e-06 -12.690616 -2e-06 16.157438 -17.601788 2.66759 1.665668 -1.955923 -2.8783 4.727804 -4.170593 4.993927 11.020536 1e-06 -1e-06 12.109064 -3.735722 -2.866787 -1e-06 -0.0 -0.0 1.291987 -1.928551 -1.498089 14.800139 0.567466 3.865607 14.242585 -1.34174 -6.660664 19.631983 0.143923 -0.648248 49.668385 -0.553036 -6.359154 0.35303 -1.511153 -0.03194 20.222807 3.684309 2.316631 18.787289 2e-06 -1e-06 10.751637 -0.47987 1.397905 -2e-06 -0.0 1e-06 3.27381 0.305947 -0.580111 21.486832 11.830382 2.266133 8.162936 1e-06 -3e-06 18.399099 -3.79899 -4.940584 4e-06 0.0 -1e-06 4.861023 10.531976 4.234764 -0.056197 -0.020823 3.831037 -5.576292 3.881303 -7.260882 1.609469 -1.800652 -0.526068 -0.0 -0.0 2e-06 -4.757584 -9.170977 0.290816 -0.002969 0.113543 9.734786 5.82391 2.779173 -7.191092 -1.436931 1.059772 -0.736291 -0.0 -0.0 -1e-06 
0.0 0.0 0.0 0.0 -0.0 0.0 1.781541 99.657677 4.151021 -0.168878 -0.661249 -0.057697 -1.311883 0.25409 -3.92308 -0.469445 0.850247 -6.661771 0.282125 -0.836274 14.606266 1.086713 2.254484 1.516733 -0.398984 0.545651 -3.559556 1.426501 -0.683745 -9.133787 7.7e-05 -2.3e-05 6e-06 0.021211 0.067669 0.06058 0.688745 -3.686789 -10.535796 -0.647146 3.82794 -10.568715 -21.105627 -6.018606 18.938091 -52.107986 -12.953301 25.568991 -0.195269 -30.660761 0.155601 11.187627 7.784197 -13.644788 -5.882109 9.861292 0.702589 -10.936876 -0.360575 7.156205 0.0 8.77483 -2e-06 -15.964624 18.022581 6.10574 -1.844033 2.498506 -2.507278 -10.163604 4.678947 4.621107 -20.976034 -4e-06 -0.0 -21.226297 2.451697 -3.594 1e-06 -6e-06 2e-06 -1.362682 2.240799 -0.746324 -21.334923 0.58491 3.00832 -13.82122 -3e-06 -0.0 -23.887178 -0.249079 -0.839484 -60.020977 2.507527 -1.202832 -0.294025 1.679688 0.833257 -14.218215 0.093216 1.300579 -34.212067 -0.287567 0.967167 -20.033222 0.964535 1.212842 0.0 1e-06 0.0 -3.44039 0.788235 0.501656 -15.928192 -3.16731 2.999705 -6.338829 -1e-06 -0.0 -18.123457 3.648184 -4.905674 -4e-06 0.0 -2e-06 13.404571 15.318586 18.274029 64.480316 7.662534 16.07728 -0.50362 37.052376 -0.179381 -3.976692 -7.841951 -17.463749 2.243542 -5.255038 -3.180159 14.282892 -0.826595 6.952503 -2e-06 -12.690607 0.0 16.247986 -17.668413 2.693472 1.665666 -1.955922 -2.878299 4.727799 -4.170588 4.993925 11.020528 2e-06 -3e-06 12.109054 -3.735717 -2.866787 -1e-06 -1e-06 -1e-06 1.291986 -1.92855 -1.49809 14.800132 0.567469 3.865608 14.242576 -1.341737 -6.660658 19.631969 0.143926 -0.648246 49.91003 -0.509606 -6.31166 0.353029 -1.511151 -0.031942 20.222792 3.684311 2.316629 18.787273 6e-06 -2e-06 10.75163 -0.479868 1.397906 -2e-06 -1e-06 0.0 3.273808 0.305946 -0.580111 21.486816 11.830377 2.266134 8.162928 3e-06 -1e-06 18.399084 -3.798987 -4.940578 6e-06 1e-06 -0.0 4.751585 10.179781 4.125403 -0.061431 -0.04499 4.404928 -5.863739 4.24852 -7.909598 1.609676 -1.814476 -0.674367 -0.0 -0.0 2e-06 -4.913143 -8.926109 -0.386271 0.01319 0.149703 11.434706 5.759627 2.71362 -8.316353 -1.44544 1.063085 -0.769378 0.0 -0.0 -1e-06 
0.0 0.0 0.0 0.0 -0.0 0.0 1.444476 99.398697 4.643357 0.146156 -1.004812 0.143101 -1.488146 0.196063 -3.800884 -0.478078 0.838039 -6.609701 -0.023801 -0.788023 14.479602 1.118723 2.293807 0.869473 -0.337881 0.542251 -3.587446 1.481714 -0.656374 -9.432205 7.7e-05 -2.2e-05 6e-06 0.014688 0.022371 0.052648 0.664117 -3.733476 -10.517672 -0.63548 3.783982 -10.541843 -21.100882 -5.629215 18.861162 -51.961922 -12.092737 24.134855 -0.046168 -34.604965 0.057931 13.816021 7.072192 -12.226977 -5.882107 9.861284 0.70259 -10.936872 -0.360575 7.156207 1e-06 8.774825 -0.0 -15.774997 18.078932 6.162283 -1.844033 2.498504 -2.507278 -10.163601 4.678945 4.621109 -20.976025 -6e-06 1e-06 -21.226286 2.451694 -3.593999 1e-06 -6e-06 -0.0 -1.362682 2.240799 -0.746324 -21.334915 0.584909 3.008323 -13.821217 -3e-06 1e-06 -23.887175 -0.249081 -0.839486 -60.015404 2.531067 -1.05187 -0.294024 1.679687 0.833255 -14.218212 0.093215 1.300582 -34.212048 -0.287564 0.96717 -20.033218 0.964535 1.212843 -0.0 1e-06 -1e-06 -3.440389 0.788232 0.501656 -15.928185 -3.16731 2.999706 -6.338826 -2e-06 0.0 -18.123446 3.648181 -4.905671 -5e-06 0.0 -3e-06 13.298313 14.732252 18.33169 65.824791 6.843829 12.698118 -1.095303 42.133663 -0.472436 -6.816925 -8.269004 -19.069124 2.243541 -5.255037 -3.180158 14.282889 -0.826596 6.952503 -3e-06 -12.690606 1e-06 16.280258 -17.752867 2.766853 1.665666 -1.955921 -2.878299 4.727798 -4.170588 4.993925 11.020526 3e-06 -2e-06 12.109052 -3.735717 -2.866785 1e-06 0.0 1e-06 1.291986 -1.928549 -1.49809 14.800127 0.567468 3.865608 14.242572 -1.341735 -6.660659 19.631969 0.143929 -0.648246 50.215687 -0.502177 -6.156412 0.353029 -1.511151 -0.03194 20.222788 3.684311 2.316629 18.78727 5e-06 -1e-06 10.751627 -0.479868 1.397905 -0.0 0.0 0.0 3.273806 0.305947 -0.58011 21.486809 11.83038 2.266132 8.162926 2e-06 0.0 18.39908 -3.798985 -4.940575 3e-06 1e-06 -2e-06 4.533148 9.770489 3.394094 -0.058021 -0.061798 6.24228 -6.137004 4.715938 -9.259136 1.602177 -1.870871 -0.921282 0.0 0.0 2e-06 -5.065655 -8.678969 -1.365658 0.044536 0.180019 13.558998 5.572924 2.690223 -9.971855 -1.448246 1.053022 -0.788353 0.0 -0.0 -1e-06 
